<mxfile host="65bd71144e">
    <diagram id="W-Uq1MurXjtg5NSUzir0" name="Page-1">
        <mxGraphModel dx="1878" dy="705" grid="1" gridSize="10" guides="1" tooltips="1" connect="1" arrows="1" fold="1" page="1" pageScale="1" pageWidth="850" pageHeight="1100" math="0" shadow="0">
            <root>
                <mxCell id="0"/>
                <mxCell id="1" parent="0"/>
                <mxCell id="2" value="&lt;span style=&quot;color: rgb(51, 51, 51); font-family: georgia, times, &amp;quot;times new roman&amp;quot;, serif; font-size: 14px; font-style: normal; font-weight: 400; letter-spacing: normal; text-indent: 0px; text-transform: none; word-spacing: 0px; background-color: rgb(255, 255, 255); display: inline; float: none;&quot;&gt;Complete the following tasks:&lt;/span&gt;&lt;br style=&quot;color: rgb(51, 51, 51); font-family: georgia, times, &amp;quot;times new roman&amp;quot;, serif; font-size: 14px; font-style: normal; font-weight: 400; letter-spacing: normal; text-indent: 0px; text-transform: none; word-spacing: 0px; background-color: rgb(255, 255, 255);&quot;&gt;&lt;br style=&quot;color: rgb(51, 51, 51); font-family: georgia, times, &amp;quot;times new roman&amp;quot;, serif; font-size: 14px; font-style: normal; font-weight: 400; letter-spacing: normal; text-indent: 0px; text-transform: none; word-spacing: 0px; background-color: rgb(255, 255, 255);&quot;&gt;&lt;span style=&quot;color: rgb(51, 51, 51); font-family: georgia, times, &amp;quot;times new roman&amp;quot;, serif; font-size: 14px; font-style: normal; font-weight: 400; letter-spacing: normal; text-indent: 0px; text-transform: none; word-spacing: 0px; background-color: rgb(255, 255, 255); display: inline; float: none;&quot;&gt;a. Create a class named Meal that includes a string variable for the meal's description, an array of strings that holds up to five of the Meal's components (for example, &quot;roasted chicken&quot;, &quot;mashed potatoes&quot;, and &quot;green beans&quot;), and a numeric variable that holds the calorie count. Include a method that prompts the user for a value for each field. Also create two overloaded methods named display(). The first method takes no parameters and displays the Meal details. The second takes a numeric parameter that indicates how many of the Meal's components to display, or an error message if the parameter value is less than 0 or more than 5.&lt;/span&gt;&lt;br style=&quot;color: rgb(51, 51, 51); font-family: georgia, times, &amp;quot;times new roman&amp;quot;, serif; font-size: 14px; font-style: normal; font-weight: 400; letter-spacing: normal; text-indent: 0px; text-transform: none; word-spacing: 0px; background-color: rgb(255, 255, 255);&quot;&gt;&lt;br style=&quot;color: rgb(51, 51, 51); font-family: georgia, times, &amp;quot;times new roman&amp;quot;, serif; font-size: 14px; font-style: normal; font-weight: 400; letter-spacing: normal; text-indent: 0px; text-transform: none; word-spacing: 0px; background-color: rgb(255, 255, 255);&quot;&gt;&lt;span style=&quot;color: rgb(51, 51, 51); font-family: georgia, times, &amp;quot;times new roman&amp;quot;, serif; font-size: 14px; font-style: normal; font-weight: 400; letter-spacing: normal; text-indent: 0px; text-transform: none; word-spacing: 0px; background-color: rgb(255, 255, 255); display: inline; float: none;&quot;&gt;b. Create an application that declares two Meal objects, sets their values, and demonstrates how both method versions can be called.&lt;/span&gt;" style="text;whiteSpace=wrap;html=1;" parent="1" vertex="1">
                    <mxGeometry x="40" y="160" width="550" height="200" as="geometry"/>
                </mxCell>
                <mxCell id="3" value="Class Meal&lt;br&gt;&amp;nbsp; &amp;nbsp;Declarations&lt;br&gt;&amp;nbsp; &amp;nbsp; &amp;nbsp; private num calorie&lt;br&gt;&amp;nbsp; &amp;nbsp; &amp;nbsp; private string description&lt;br&gt;&amp;nbsp; &amp;nbsp; &amp;nbsp; private string items[5]&lt;br&gt;&lt;br&gt;&amp;nbsp; &amp;nbsp;public void setMeal()&lt;br&gt;&amp;nbsp; &amp;nbsp;num x = 0&lt;br&gt;&amp;nbsp; &amp;nbsp;output &quot;Enter meal description&quot;&lt;br&gt;&amp;nbsp; &amp;nbsp;input description&lt;br&gt;&amp;nbsp; &amp;nbsp;output&amp;nbsp;&lt;br&gt;&amp;nbsp; &amp;nbsp;while x &amp;lt; 5&lt;br&gt;&amp;nbsp; &amp;nbsp; &amp;nbsp; output &quot;Enter meal items&quot;&lt;br&gt;&amp;nbsp; &amp;nbsp; &amp;nbsp; input items[x]&lt;br&gt;&amp;nbsp; &amp;nbsp; &amp;nbsp; x += 1&lt;br&gt;&amp;nbsp; &amp;nbsp;endwhile&lt;br&gt;&amp;nbsp; &amp;nbsp;output &quot;Enter calorie count&quot;&lt;br&gt;&amp;nbsp; &amp;nbsp;input calorie&lt;br&gt;&amp;nbsp; &amp;nbsp;return&lt;br&gt;&lt;br&gt;&amp;nbsp; &amp;nbsp;public void display()&lt;br&gt;&amp;nbsp; &amp;nbsp;num x = 0&lt;br&gt;&amp;nbsp; &amp;nbsp;output description&lt;br&gt;&amp;nbsp; &amp;nbsp;while x &amp;lt; 5&lt;br&gt;&amp;nbsp; &amp;nbsp; &amp;nbsp; output items[x]&lt;br&gt;&amp;nbsp; &amp;nbsp; &amp;nbsp; x += 1&lt;br&gt;&amp;nbsp; &amp;nbsp;endwhile&lt;br&gt;&amp;nbsp; &amp;nbsp;output calorie&lt;br&gt;&amp;nbsp; &amp;nbsp;return&lt;br&gt;&amp;nbsp; &amp;nbsp;&lt;br&gt;&amp;nbsp; &amp;nbsp;public void display(num meal)&lt;br&gt;&amp;nbsp; &amp;nbsp;num x = 0&amp;nbsp;&lt;br&gt;&amp;nbsp; &amp;nbsp;while x &amp;lt; meal&lt;br&gt;&amp;nbsp; &amp;nbsp; &amp;nbsp; if meal &amp;gt; 5&lt;br&gt;&amp;nbsp; &amp;nbsp; &amp;nbsp; &amp;nbsp; &amp;nbsp;output &quot;Incorrect input, only 5 items in meal.&quot;&lt;br&gt;&amp;nbsp; &amp;nbsp; &amp;nbsp; &amp;nbsp; &amp;nbsp;break&lt;br&gt;&amp;nbsp; &amp;nbsp; &amp;nbsp; endif&amp;nbsp;&lt;br&gt;&amp;nbsp; &amp;nbsp; &amp;nbsp; output description&amp;nbsp;&lt;br&gt;&amp;nbsp; &amp;nbsp; &amp;nbsp; output items[x]&lt;br&gt;&amp;nbsp; &amp;nbsp; &amp;nbsp; output calorie&lt;br&gt;&amp;nbsp; &amp;nbsp; &amp;nbsp; x += 1&lt;br&gt;&amp;nbsp; &amp;nbsp;endwhile&lt;br&gt;&amp;nbsp; &amp;nbsp;return" style="whiteSpace=wrap;html=1;align=left;" vertex="1" parent="1">
                    <mxGeometry x="350" y="420" width="350" height="650" as="geometry"/>
                </mxCell>
                <mxCell id="4" value="Meal" style="whiteSpace=wrap;html=1;align=left;" vertex="1" parent="1">
                    <mxGeometry y="420" width="340" height="60" as="geometry"/>
                </mxCell>
                <mxCell id="5" value="description : string&lt;br&gt;items[5] : string&lt;br&gt;calorie : num" style="whiteSpace=wrap;html=1;align=left;" vertex="1" parent="1">
                    <mxGeometry y="480" width="340" height="90" as="geometry"/>
                </mxCell>
                <mxCell id="6" value="setMeal() : void&lt;br&gt;display(): void&lt;br&gt;display(meal : num) : void" style="whiteSpace=wrap;html=1;align=left;" vertex="1" parent="1">
                    <mxGeometry y="570" width="340" height="130" as="geometry"/>
                </mxCell>
                <mxCell id="7" value="A)" style="text;html=1;align=center;verticalAlign=middle;resizable=0;points=[];autosize=1;strokeColor=none;fillColor=none;" vertex="1" parent="1">
                    <mxGeometry x="-40" y="420" width="30" height="20" as="geometry"/>
                </mxCell>
                <mxCell id="10" value="" style="edgeStyle=none;html=1;" edge="1" parent="1" source="8" target="9">
                    <mxGeometry relative="1" as="geometry"/>
                </mxCell>
                <mxCell id="8" value="B)" style="text;html=1;align=center;verticalAlign=middle;resizable=0;points=[];autosize=1;strokeColor=none;fillColor=none;" vertex="1" parent="1">
                    <mxGeometry x="675" y="150" width="30" height="20" as="geometry"/>
                </mxCell>
                <mxCell id="9" value="Start&amp;nbsp;&lt;br&gt;&amp;nbsp; &amp;nbsp;Declarations&lt;br&gt;&amp;nbsp; &amp;nbsp; &amp;nbsp; Meal meal1&lt;br&gt;&amp;nbsp; &amp;nbsp; &amp;nbsp; Meal meal2&lt;br&gt;&lt;br&gt;&amp;nbsp; &amp;nbsp; &amp;nbsp; meal1.setMeal()&lt;br&gt;&amp;nbsp; &amp;nbsp; &amp;nbsp; meal2.setMeal()&lt;br&gt;&lt;br&gt;&amp;nbsp; &amp;nbsp; &amp;nbsp; meal1.display()&lt;br&gt;&amp;nbsp; &amp;nbsp; &amp;nbsp; meal2.display(6)&lt;br&gt;Stop" style="whiteSpace=wrap;html=1;align=left;" vertex="1" parent="1">
                    <mxGeometry x="740" y="130" width="220" height="210" as="geometry"/>
                </mxCell>
            </root>
        </mxGraphModel>
    </diagram>
</mxfile>